<svg xmlns="http://www.w3.org/2000/svg" width="512" height="512" viewBox="0 0 512 512">
  <rect width="512" height="512" rx="112" fill="#004C54"/>
  <g
    transform="translate(256 256) scale(15.5) translate(-12 -12)"
    fill="none"
    stroke="#ffffff"
    stroke-width="2"
    stroke-linecap="round"
    stroke-linejoin="round"
  >
    <path d="M12 7v14m4-9h2m-2-4h2M3 18a1 1 0 0 1-1-1V4a1 1 0 0 1 1-1h5a4 4 0 0 1 4 4a4 4 0 0 1 4-4h5a1 1 0 0 1 1 1v13a1 1 0 0 1-1 1h-6a3 3 0 0 0-3 3a3 3 0 0 0-3-3zm3-6h2M6 8h2"/>
  </g>
</svg>
